<?xml version="1.0" encoding="UTF-8"?>
<svg width="200" height="200" version="1.1" viewBox="0 0 200 200" xmlns="http://www.w3.org/2000/svg">
 <g transform="translate(0 -97)">
  <g transform="matrix(1.3333 0 0 -1.3333 -126.67 526.67)">
   <g transform="translate(170 260)">
    <path d="m0 0c-44.183 0-80-35.817-80-80s35.817-80 80-80 80 35.817 80 80-35.817 80-80 80m0-170c-49.706 0-90 40.294-90 90s40.294 90 90 90 90-40.294 90-90-40.294-90-90-90" fill="#1a237e"/>
   </g>
   <g transform="translate(170 245)">
    <path d="m0 0c-35.841 0-65-29.159-65-65s29.159-65 65-65 65 29.159 65 65-29.159 65-65 65m0-140c-41.355 0-75 33.645-75 75s33.645 75 75 75 75-33.645 75-75-33.645-75-75-75" fill="#1a237e"/>
   </g>
   <g transform="translate(145.83 205.83)">
    <path d="m0 0c-3.866 0-7-3.134-7-7s3.134-7 7-7 7 3.134 7 7-3.134 7-7 7" fill="#1a237e"/>
   </g>
   <g transform="translate(194.17 205.83)">
    <path d="m0 0c-3.866 0-7-3.134-7-7s3.134-7 7-7 7 3.134 7 7-3.134 7-7 7" fill="#1a237e"/>
   </g>
   <g transform="translate(170 168.33)">
    <path d="m0 0c-20.71 0-37.5-16.79-37.5-37.5s16.79-37.5 37.5-37.5 37.5 16.79 37.5 37.5-16.79 37.5-37.5 37.5" fill="#1a237e"/>
   </g>
   <g transform="translate(170 155.83)">
    <path d="m0 0c-13.807 0-25-11.193-25-25s11.193-25 25-25 25 11.193 25 25-11.193 25-25 25" fill="#fff"/>
   </g>
   <g transform="translate(170 143.33)">
    <path d="m0 0c-6.904 0-12.5-5.596-12.5-12.5s5.596-12.5 12.5-12.5 12.5 5.596 12.5 12.5-5.596 12.5-12.5 12.5" fill="#1a237e"/>
   </g>
  </g>
 </g>
</svg> 